<?xml version="1.0" encoding="UTF-8" standalone="no"?>
<!-- Created with Inkscape (http://www.inkscape.org/) -->

<svg
   xmlns:dc="http://purl.org/dc/elements/1.1/"
   xmlns:cc="http://creativecommons.org/ns#"
   xmlns:rdf="http://www.w3.org/1999/02/22-rdf-syntax-ns#"
   xmlns:svg="http://www.w3.org/2000/svg"
   xmlns="http://www.w3.org/2000/svg"
   xmlns:sodipodi="http://sodipodi.sourceforge.net/DTD/sodipodi-0.dtd"
   xmlns:inkscape="http://www.inkscape.org/namespaces/inkscape"
   width="60"
   height="60"
   id="svg2"
   version="1.1"
   inkscape:version="0.48.4 r9939"
   sodipodi:docname="kwadrat.svg"
   inkscape:export-filename="C:\Users\hehe\git\zpi-desktop\src\images\square.png"
   inkscape:export-xdpi="90"
   inkscape:export-ydpi="90">
  <defs
     id="defs4" />
  <sodipodi:namedview
     id="base"
     pagecolor="#ffffff"
     bordercolor="#666666"
     borderopacity="1.0"
     inkscape:pageopacity="0.0"
     inkscape:pageshadow="2"
     inkscape:zoom="7.9195959"
     inkscape:cx="33.896352"
     inkscape:cy="29.526992"
     inkscape:document-units="px"
     inkscape:current-layer="layer1"
     showgrid="false"
     showguides="true"
     inkscape:guide-bbox="true"
     inkscape:window-width="1280"
     inkscape:window-height="1002"
     inkscape:window-x="1358"
     inkscape:window-y="-8"
     inkscape:window-maximized="1" />
  <metadata
     id="metadata7">
    <rdf:RDF>
      <cc:Work
         rdf:about="">
        <dc:format>image/svg+xml</dc:format>
        <dc:type
           rdf:resource="http://purl.org/dc/dcmitype/StillImage" />
        <dc:title></dc:title>
      </cc:Work>
    </rdf:RDF>
  </metadata>
  <g
     inkscape:label="Layer 1"
     inkscape:groupmode="layer"
     id="layer1"
     transform="translate(0,-992.36218)">
    <path
       style="fill:#e963a8;fill-opacity:1;stroke:none"
       d="M 5.375 3.5625 C 4.4954696 3.5625 3.78125 4.2767196 3.78125 5.15625 L 3.78125 54.625 C 3.78125 55.50453 4.4954696 56.21875 5.375 56.21875 L 54.84375 56.21875 C 55.72328 56.21875 56.4375 55.50453 56.4375 54.625 L 56.4375 5.15625 C 56.4375 4.2767196 55.72328 3.5625 54.84375 3.5625 L 5.375 3.5625 z M 11.71875 10.3125 L 48.5 10.3125 C 49.153848 10.3125 49.6875 10.846152 49.6875 11.5 L 49.6875 48.28125 C 49.6875 48.935098 49.153848 49.46875 48.5 49.46875 L 11.71875 49.46875 C 11.064902 49.46875 10.53125 48.935098 10.53125 48.28125 L 10.53125 11.5 C 10.53125 10.846152 11.064902 10.3125 11.71875 10.3125 z "
       transform="translate(0,992.36218)"
       id="rect2987" />
  </g>
</svg>
